<svg xmlns="http://www.w3.org/2000/svg" viewBox="0 0 900 620" width="900" height="620" style="background:#0f1117;font-family:'Segoe UI',sans-serif;">

  <!-- Background grid -->
  <defs>
    <pattern id="grid" width="30" height="30" patternUnits="userSpaceOnUse">
      <path d="M 30 0 L 0 0 0 30" fill="none" stroke="#1e2130" stroke-width="0.5"/>
    </pattern>
    <marker id="arrowW" viewBox="0 0 10 10" refX="8" refY="5" markerWidth="6" markerHeight="6" orient="auto-start-reverse">
      <path d="M2 1L8 5L2 9" fill="none" stroke="#4ade80" stroke-width="1.5" stroke-linecap="round"/>
    </marker>
    <marker id="arrowB" viewBox="0 0 10 10" refX="8" refY="5" markerWidth="6" markerHeight="6" orient="auto-start-reverse">
      <path d="M2 1L8 5L2 9" fill="none" stroke="#60a5fa" stroke-width="1.5" stroke-linecap="round"/>
    </marker>
    <marker id="arrowA" viewBox="0 0 10 10" refX="8" refY="5" markerWidth="6" markerHeight="6" orient="auto-start-reverse">
      <path d="M2 1L8 5L2 9" fill="none" stroke="#f59e0b" stroke-width="1.5" stroke-linecap="round"/>
    </marker>
    <marker id="arrowG" viewBox="0 0 10 10" refX="8" refY="5" markerWidth="6" markerHeight="6" orient="auto-start-reverse">
      <path d="M2 1L8 5L2 9" fill="none" stroke="#a78bfa" stroke-width="1.5" stroke-linecap="round"/>
    </marker>
  </defs>
  <rect width="900" height="620" fill="#0f1117"/>
  <rect width="900" height="620" fill="url(#grid)"/>

  <!-- Title -->
  <text x="450" y="36" text-anchor="middle" fill="#f1f5f9" font-size="18" font-weight="700" letter-spacing="1">GigShield — System Architecture</text>
  <text x="450" y="54" text-anchor="middle" fill="#64748b" font-size="11">AI-Powered Parametric Insurance for India's Gig Economy</text>

  <!-- ═══ LAYER 1: EXTERNAL DATA SOURCES ═══ -->
  <rect x="20" y="70" width="860" height="90" rx="10" fill="none" stroke="#1e3a5f" stroke-width="1" stroke-dasharray="6 3"/>
  <text x="36" y="88" fill="#3b82f6" font-size="10" font-weight="600" letter-spacing="1.5">EXTERNAL DATA SOURCES</text>

  <rect x="36" y="96" width="120" height="52" rx="8" fill="#0f2a4a" stroke="#1d4ed8" stroke-width="1"/>
  <text x="96" y="118" text-anchor="middle" fill="#93c5fd" font-size="11" font-weight="600">Open-Meteo</text>
  <text x="96" y="133" text-anchor="middle" fill="#3b82f6" font-size="9">Rainfall · Heat</text>
  <text x="96" y="144" text-anchor="middle" fill="#1e40af" font-size="8">Free · No API Key</text>

  <rect x="172" y="96" width="120" height="52" rx="8" fill="#0f2a4a" stroke="#1d4ed8" stroke-width="1"/>
  <text x="232" y="118" text-anchor="middle" fill="#93c5fd" font-size="11" font-weight="600">CPCB / data.gov.in</text>
  <text x="232" y="133" text-anchor="middle" fill="#3b82f6" font-size="9">AQI Index</text>
  <text x="232" y="144" text-anchor="middle" fill="#1e40af" font-size="8">Free · API Key</text>

  <rect x="308" y="96" width="120" height="52" rx="8" fill="#0f2a4a" stroke="#1d4ed8" stroke-width="1"/>
  <text x="368" y="118" text-anchor="middle" fill="#93c5fd" font-size="11" font-weight="600">Platform Status</text>
  <text x="368" y="133" text-anchor="middle" fill="#3b82f6" font-size="9">Swiggy · Zomato · Zepto</text>
  <text x="368" y="144" text-anchor="middle" fill="#1e40af" font-size="8">Mock API (Flask)</text>

  <rect x="444" y="96" width="120" height="52" rx="8" fill="#0f2a4a" stroke="#1d4ed8" stroke-width="1"/>
  <text x="504" y="118" text-anchor="middle" fill="#93c5fd" font-size="11" font-weight="600">Govt Alerts</text>
  <text x="504" y="133" text-anchor="middle" fill="#3b82f6" font-size="9">Curfew · Section 144</text>
  <text x="504" y="144" text-anchor="middle" fill="#1e40af" font-size="8">Mock (upgradeable)</text>

  <rect x="580" y="96" width="120" height="52" rx="8" fill="#0f2a4a" stroke="#1d4ed8" stroke-width="1"/>
  <text x="640" y="118" text-anchor="middle" fill="#93c5fd" font-size="11" font-weight="600">NDMA Flood</text>
  <text x="640" y="133" text-anchor="middle" fill="#3b82f6" font-size="9">River Levels</text>
  <text x="640" y="144" text-anchor="middle" fill="#1e40af" font-size="8">Mock (upgradeable)</text>

  <rect x="716" y="96" width="148" height="52" rx="8" fill="#0f2a4a" stroke="#1d4ed8" stroke-width="1"/>
  <text x="790" y="118" text-anchor="middle" fill="#93c5fd" font-size="11" font-weight="600">Payment Gateway</text>
  <text x="790" y="133" text-anchor="middle" fill="#3b82f6" font-size="9">Razorpay Sandbox</text>
  <text x="790" y="144" text-anchor="middle" fill="#1e40af" font-size="8">UPI Simulator</text>

  <!-- Arrows from sources down to trigger engine -->
  <line x1="96" y1="148" x2="96" y2="188" stroke="#1d4ed8" stroke-width="1" stroke-dasharray="3 2" marker-end="url(#arrowB)"/>
  <line x1="232" y1="148" x2="232" y2="188" stroke="#1d4ed8" stroke-width="1" stroke-dasharray="3 2" marker-end="url(#arrowB)"/>
  <line x1="368" y1="148" x2="368" y2="188" stroke="#1d4ed8" stroke-width="1" stroke-dasharray="3 2" marker-end="url(#arrowB)"/>
  <line x1="504" y1="148" x2="504" y2="188" stroke="#1d4ed8" stroke-width="1" stroke-dasharray="3 2" marker-end="url(#arrowB)"/>
  <line x1="640" y1="148" x2="570" y2="188" stroke="#1d4ed8" stroke-width="1" stroke-dasharray="3 2" marker-end="url(#arrowB)"/>
  <line x1="790" y1="148" x2="790" y2="390" stroke="#f59e0b" stroke-width="1" stroke-dasharray="3 2" marker-end="url(#arrowA)"/>

  <!-- ═══ LAYER 2: TRIGGER ENGINE ═══ -->
  <rect x="20" y="188" width="620" height="110" rx="10" fill="none" stroke="#064e3b" stroke-width="1" stroke-dasharray="6 3"/>
  <text x="36" y="206" fill="#10b981" font-size="10" font-weight="600" letter-spacing="1.5">PARAMETRIC TRIGGER ENGINE · Python 3 · Flask · APScheduler</text>

  <rect x="36" y="212" width="130" height="74" rx="8" fill="#052e16" stroke="#16a34a" stroke-width="1"/>
  <text x="101" y="234" text-anchor="middle" fill="#86efac" font-size="11" font-weight="600">API Poller</text>
  <text x="101" y="250" text-anchor="middle" fill="#4ade80" font-size="9">Every 5 minutes</text>
  <text x="101" y="264" text-anchor="middle" fill="#4ade80" font-size="9">APScheduler</text>
  <text x="101" y="278" text-anchor="middle" fill="#166534" font-size="8">Background thread</text>

  <rect x="182" y="212" width="130" height="74" rx="8" fill="#052e16" stroke="#16a34a" stroke-width="1"/>
  <text x="247" y="234" text-anchor="middle" fill="#86efac" font-size="11" font-weight="600">Threshold Engine</text>
  <text x="247" y="250" text-anchor="middle" fill="#4ade80" font-size="9">Rain · AQI · Heat</text>
  <text x="247" y="264" text-anchor="middle" fill="#4ade80" font-size="9">Platform · Curfew</text>
  <text x="247" y="278" text-anchor="middle" fill="#166534" font-size="8">triggers.py</text>

  <rect x="328" y="212" width="130" height="74" rx="8" fill="#052e16" stroke="#16a34a" stroke-width="1"/>
  <text x="393" y="234" text-anchor="middle" fill="#86efac" font-size="11" font-weight="600">Dedup Lock</text>
  <text x="393" y="250" text-anchor="middle" fill="#4ade80" font-size="9">1 trigger / hour</text>
  <text x="393" y="264" text-anchor="middle" fill="#4ade80" font-size="9">per zone + type</text>
  <text x="393" y="278" text-anchor="middle" fill="#166534" font-size="8">In-memory dict</text>

  <rect x="474" y="212" width="150" height="74" rx="8" fill="#052e16" stroke="#16a34a" stroke-width="1"/>
  <text x="549" y="234" text-anchor="middle" fill="#86efac" font-size="11" font-weight="600">Worker Registry</text>
  <text x="549" y="250" text-anchor="middle" fill="#4ade80" font-size="9">Active workers</text>
  <text x="549" y="264" text-anchor="middle" fill="#4ade80" font-size="9">Zone mapping</text>
  <text x="549" y="278" text-anchor="middle" fill="#166534" font-size="8">REST + WebSocket</text>

  <!-- Internal arrows -->
  <line x1="166" y1="249" x2="182" y2="249" stroke="#4ade80" stroke-width="1" marker-end="url(#arrowW)"/>
  <line x1="312" y1="249" x2="328" y2="249" stroke="#4ade80" stroke-width="1" marker-end="url(#arrowW)"/>
  <line x1="458" y1="249" x2="474" y2="249" stroke="#4ade80" stroke-width="1" marker-end="url(#arrowW)"/>

  <!-- Arrow from trigger engine to AI layer -->
  <line x1="300" y1="298" x2="300" y2="338" stroke="#4ade80" stroke-width="1.5" marker-end="url(#arrowW)"/>
  <!-- Arrow from trigger engine to Spring Boot -->
  <line x1="549" y1="298" x2="720" y2="338" stroke="#4ade80" stroke-width="1.5" marker-end="url(#arrowW)"/>

  <!-- ═══ LAYER 3: AI / ML CORE ═══ -->
  <rect x="20" y="338" width="620" height="100" rx="10" fill="none" stroke="#4c1d95" stroke-width="1" stroke-dasharray="6 3"/>
  <text x="36" y="356" fill="#a78bfa" font-size="10" font-weight="600" letter-spacing="1.5">AI / ML CORE · Python · scikit-learn</text>

  <rect x="36" y="362" width="148" height="64" rx="8" fill="#1e1b4b" stroke="#6d28d9" stroke-width="1"/>
  <text x="110" y="384" text-anchor="middle" fill="#c4b5fd" font-size="11" font-weight="600">Premium Calculator</text>
  <text x="110" y="400" text-anchor="middle" fill="#a78bfa" font-size="9">Income-at-Risk model</text>
  <text x="110" y="414" text-anchor="middle" fill="#4c1d95" font-size="8">Hourly rate × disruption freq</text>

  <rect x="200" y="362" width="148" height="64" rx="8" fill="#1e1b4b" stroke="#6d28d9" stroke-width="1"/>
  <text x="274" y="384" text-anchor="middle" fill="#c4b5fd" font-size="11" font-weight="600">Risk Profiler</text>
  <text x="274" y="400" text-anchor="middle" fill="#a78bfa" font-size="9">Zone × Persona score</text>
  <text x="274" y="414" text-anchor="middle" fill="#4c1d95" font-size="8">Historical + live blend</text>

  <rect x="364" y="362" width="148" height="64" rx="8" fill="#1e1b4b" stroke="#6d28d9" stroke-width="1"/>
  <text x="438" y="384" text-anchor="middle" fill="#c4b5fd" font-size="11" font-weight="600">Fraud Detector</text>
  <text x="438" y="400" text-anchor="middle" fill="#a78bfa" font-size="9">Isolation Forest</text>
  <text x="438" y="414" text-anchor="middle" fill="#4c1d95" font-size="8">GPS spoof · duplicates</text>

  <rect x="528" y="362" width="96" height="64" rx="8" fill="#1e1b4b" stroke="#6d28d9" stroke-width="1"/>
  <text x="576" y="384" text-anchor="middle" fill="#c4b5fd" font-size="11" font-weight="600">Payout Calc</text>
  <text x="576" y="400" text-anchor="middle" fill="#a78bfa" font-size="9">Lost wages</text>
  <text x="576" y="414" text-anchor="middle" fill="#4c1d95" font-size="8">Coverage cap</text>

  <line x1="300" y1="426" x2="300" y2="458" stroke="#a78bfa" stroke-width="1.5" marker-end="url(#arrowG)"/>

  <!-- ═══ LAYER 4: SPRING BOOT BACKEND ═══ -->
  <rect x="660" y="338" width="220" height="180" rx="10" fill="none" stroke="#7c2d12" stroke-width="1" stroke-dasharray="6 3"/>
  <text x="676" y="356" fill="#fb923c" font-size="10" font-weight="600" letter-spacing="1.5">BACKEND · Java Spring Boot</text>

  <rect x="676" y="362" width="92" height="52" rx="6" fill="#2c1810" stroke="#c2410c" stroke-width="1"/>
  <text x="722" y="382" text-anchor="middle" fill="#fdba74" font-size="10" font-weight="600">Worker</text>
  <text x="722" y="396" text-anchor="middle" fill="#fb923c" font-size="8">Service</text>
  <text x="722" y="408" text-anchor="middle" fill="#7c2d12" font-size="7">Onboard · Profile</text>

  <rect x="780" y="362" width="92" height="52" rx="6" fill="#2c1810" stroke="#c2410c" stroke-width="1"/>
  <text x="826" y="382" text-anchor="middle" fill="#fdba74" font-size="10" font-weight="600">Policy</text>
  <text x="826" y="396" text-anchor="middle" fill="#fb923c" font-size="8">Service</text>
  <text x="826" y="408" text-anchor="middle" fill="#7c2d12" font-size="7">Weekly tiers</text>

  <rect x="676" y="426" width="92" height="52" rx="6" fill="#2c1810" stroke="#c2410c" stroke-width="1"/>
  <text x="722" y="446" text-anchor="middle" fill="#fdba74" font-size="10" font-weight="600">Claims</text>
  <text x="722" y="460" text-anchor="middle" fill="#fb923c" font-size="8">Service</text>
  <text x="722" y="472" text-anchor="middle" fill="#7c2d12" font-size="7">Auto-process</text>

  <rect x="780" y="426" width="92" height="52" rx="6" fill="#2c1810" stroke="#c2410c" stroke-width="1"/>
  <text x="826" y="446" text-anchor="middle" fill="#fdba74" font-size="10" font-weight="600">Payout</text>
  <text x="826" y="460" text-anchor="middle" fill="#fb923c" font-size="8">Service</text>
  <text x="826" y="472" text-anchor="middle" fill="#7c2d12" font-size="7">Razorpay · UPI</text>

  <!-- DB under spring boot -->
  <rect x="690" y="492" width="180" height="34" rx="6" fill="#1c1917" stroke="#78350f" stroke-width="1"/>
  <text x="780" y="514" text-anchor="middle" fill="#d97706" font-size="10" font-weight="600">PostgreSQL Database</text>

  <line x1="770" y1="478" x2="770" y2="492" stroke="#fb923c" stroke-width="1" marker-end="url(#arrowA)"/>
  <line x1="790" y1="298" x2="790" y2="338" stroke="#fb923c" stroke-width="1" stroke-dasharray="3 2" marker-end="url(#arrowA)"/>

  <!-- ═══ LAYER 5: FRONTEND ═══ -->
  <rect x="20" y="458" width="620" height="110" rx="10" fill="none" stroke="#854d0e" stroke-width="1" stroke-dasharray="6 3"/>
  <text x="36" y="476" fill="#fbbf24" font-size="10" font-weight="600" letter-spacing="1.5">FRONTEND LAYER</text>

  <!-- React Native -->
  <rect x="36" y="482" width="190" height="74" rx="8" fill="#1c1400" stroke="#b45309" stroke-width="1"/>
  <text x="131" y="504" text-anchor="middle" fill="#fde68a" font-size="11" font-weight="600">React Native App</text>
  <text x="131" y="520" text-anchor="middle" fill="#f59e0b" font-size="9">Worker Mobile (Android + iOS)</text>
  <text x="131" y="534" text-anchor="middle" fill="#f59e0b" font-size="9">Onboard · Policy · Claims</text>
  <text x="131" y="548" text-anchor="middle" fill="#92400e" font-size="8">WebSocket push notifications</text>

  <!-- React Web -->
  <rect x="242" y="482" width="190" height="74" rx="8" fill="#1c1400" stroke="#b45309" stroke-width="1"/>
  <text x="337" y="504" text-anchor="middle" fill="#fde68a" font-size="11" font-weight="600">React Web Dashboard</text>
  <text x="337" y="520" text-anchor="middle" fill="#f59e0b" font-size="9">Admin / Insurer View</text>
  <text x="337" y="534" text-anchor="middle" fill="#f59e0b" font-size="9">Loss ratios · Live zone map</text>
  <text x="337" y="548" text-anchor="middle" fill="#92400e" font-size="8">Fraud queue · Predictive analytics</text>

  <!-- Mock Platform API -->
  <rect x="448" y="482" width="176" height="74" rx="8" fill="#1c1400" stroke="#b45309" stroke-width="1"/>
  <text x="536" y="504" text-anchor="middle" fill="#fde68a" font-size="11" font-weight="600">Mock Platform API</text>
  <text x="536" y="520" text-anchor="middle" fill="#f59e0b" font-size="9">Python · Flask · Port 5002</text>
  <text x="536" y="534" text-anchor="middle" fill="#f59e0b" font-size="9">Swiggy · Zomato · Zepto</text>
  <text x="536" y="548" text-anchor="middle" fill="#92400e" font-size="8">Swap URL → production ready</text>

  <!-- Frontend to backend arrows -->
  <line x1="131" y1="482" x2="720" y2="450" stroke="#fbbf24" stroke-width="1" stroke-dasharray="3 2" marker-end="url(#arrowA)"/>
  <line x1="337" y1="482" x2="750" y2="490" stroke="#fbbf24" stroke-width="1" stroke-dasharray="3 2" marker-end="url(#arrowA)"/>

  <!-- WebSocket label -->
  <text x="130" y="310" text-anchor="middle" fill="#4ade80" font-size="8">WebSocket push</text>
  <line x1="130" y1="298" x2="100" y2="482" stroke="#4ade80" stroke-width="1" stroke-dasharray="2 3" marker-end="url(#arrowW)"/>

  <!-- Legend -->
  <rect x="20" y="578" width="860" height="36" rx="6" fill="#0d1117" stroke="#1e2130" stroke-width="1"/>
  <line x1="40" y1="596" x2="70" y2="596" stroke="#3b82f6" stroke-width="2" stroke-dasharray="4 2"/>
  <text x="78" y="600" fill="#64748b" font-size="9">External API</text>
  <line x1="150" y1="596" x2="180" y2="596" stroke="#4ade80" stroke-width="2"/>
  <text x="188" y="600" fill="#64748b" font-size="9">Trigger flow</text>
  <line x1="250" y1="596" x2="280" y2="596" stroke="#a78bfa" stroke-width="2"/>
  <text x="288" y="600" fill="#64748b" font-size="9">AI processing</text>
  <line x1="360" y1="596" x2="390" y2="596" stroke="#fb923c" stroke-width="2"/>
  <text x="398" y="600" fill="#64748b" font-size="9">Backend services</text>
  <line x1="490" y1="596" x2="520" y2="596" stroke="#fbbf24" stroke-width="2" stroke-dasharray="3 2"/>
  <text x="528" y="600" fill="#64748b" font-size="9">Frontend calls</text>
  <line x1="620" y1="596" x2="650" y2="596" stroke="#f59e0b" stroke-width="2" stroke-dasharray="3 2"/>
  <text x="658" y="600" fill="#64748b" font-size="9">Payment flow</text>

</svg>