<svg xmlns="http://www.w3.org/2000/svg" viewBox="0 0 900 420" width="900" height="420" style="background:#0f1117;font-family:'Segoe UI',sans-serif;">

  <defs>
    <pattern id="grid3" width="30" height="30" patternUnits="userSpaceOnUse">
      <path d="M 30 0 L 0 0 0 30" fill="none" stroke="#1e2130" stroke-width="0.5"/>
    </pattern>
  </defs>

  <rect width="900" height="420" fill="#0f1117"/>
  <rect width="900" height="420" fill="url(#grid3)"/>

  <text x="450" y="32" text-anchor="middle" fill="#f1f5f9" font-size="16" font-weight="700" letter-spacing="1">GigShield · Tech Stack</text>
  <text x="450" y="50" text-anchor="middle" fill="#64748b" font-size="10">Every tool, library and service used — and why</text>

  <!-- Column 1: Backend Python -->
  <rect x="20" y="65" width="168" height="320" rx="10" fill="#0c1a0c" stroke="#16a34a" stroke-width="1"/>
  <text x="104" y="86" text-anchor="middle" fill="#4ade80" font-size="11" font-weight="700">Python Layer</text>
  <text x="104" y="100" text-anchor="middle" fill="#166534" font-size="8">Trigger Engine + AI/ML</text>

  <rect x="32" y="108" width="144" height="34" rx="6" fill="#052e16" stroke="#15803d" stroke-width="0.5"/>
  <text x="104" y="122" text-anchor="middle" fill="#86efac" font-size="10" font-weight="600">Python 3.11</text>
  <text x="104" y="134" text-anchor="middle" fill="#4ade80" font-size="8">Core language</text>

  <rect x="32" y="150" width="144" height="34" rx="6" fill="#052e16" stroke="#15803d" stroke-width="0.5"/>
  <text x="104" y="164" text-anchor="middle" fill="#86efac" font-size="10" font-weight="600">Flask 3.0</text>
  <text x="104" y="176" text-anchor="middle" fill="#4ade80" font-size="8">REST API server</text>

  <rect x="32" y="192" width="144" height="34" rx="6" fill="#052e16" stroke="#15803d" stroke-width="0.5"/>
  <text x="104" y="206" text-anchor="middle" fill="#86efac" font-size="10" font-weight="600">Flask-SocketIO</text>
  <text x="104" y="218" text-anchor="middle" fill="#4ade80" font-size="8">WebSocket real-time push</text>

  <rect x="32" y="234" width="144" height="34" rx="6" fill="#052e16" stroke="#15803d" stroke-width="0.5"/>
  <text x="104" y="248" text-anchor="middle" fill="#86efac" font-size="10" font-weight="600">APScheduler</text>
  <text x="104" y="260" text-anchor="middle" fill="#4ade80" font-size="8">5-min poll background job</text>

  <rect x="32" y="276" width="144" height="34" rx="6" fill="#052e16" stroke="#15803d" stroke-width="0.5"/>
  <text x="104" y="290" text-anchor="middle" fill="#86efac" font-size="10" font-weight="600">scikit-learn</text>
  <text x="104" y="302" text-anchor="middle" fill="#4ade80" font-size="8">Fraud · Isolation Forest</text>

  <rect x="32" y="318" width="144" height="34" rx="6" fill="#052e16" stroke="#15803d" stroke-width="0.5"/>
  <text x="104" y="332" text-anchor="middle" fill="#86efac" font-size="10" font-weight="600">Requests</text>
  <text x="104" y="344" text-anchor="middle" fill="#4ade80" font-size="8">External API calls</text>

  <rect x="32" y="357" width="144" height="20" rx="4" fill="#14532d" stroke="#4ade80" stroke-width="0.5"/>
  <text x="104" y="371" text-anchor="middle" fill="#4ade80" font-size="8">Port 5001 · Port 5002</text>

  <!-- Column 2: Java Spring Boot -->
  <rect x="200" y="65" width="168" height="320" rx="10" fill="#1c0f00" stroke="#f97316" stroke-width="1"/>
  <text x="284" y="86" text-anchor="middle" fill="#fb923c" font-size="11" font-weight="700">Java Layer</text>
  <text x="284" y="100" text-anchor="middle" fill="#7c2d12" font-size="8">Backend Services</text>

  <rect x="212" y="108" width="144" height="34" rx="6" fill="#2c1810" stroke="#c2410c" stroke-width="0.5"/>
  <text x="284" y="122" text-anchor="middle" fill="#fdba74" font-size="10" font-weight="600">Java 17</text>
  <text x="284" y="134" text-anchor="middle" fill="#fb923c" font-size="8">LTS · Strong typing</text>

  <rect x="212" y="150" width="144" height="34" rx="6" fill="#2c1810" stroke="#c2410c" stroke-width="0.5"/>
  <text x="284" y="164" text-anchor="middle" fill="#fdba74" font-size="10" font-weight="600">Spring Boot 3</text>
  <text x="284" y="176" text-anchor="middle" fill="#fb923c" font-size="8">REST microservices</text>

  <rect x="212" y="192" width="144" height="34" rx="6" fill="#2c1810" stroke="#c2410c" stroke-width="0.5"/>
  <text x="284" y="206" text-anchor="middle" fill="#fdba74" font-size="10" font-weight="600">Spring Data JPA</text>
  <text x="284" y="218" text-anchor="middle" fill="#fb923c" font-size="8">Database ORM layer</text>

  <rect x="212" y="234" width="144" height="34" rx="6" fill="#2c1810" stroke="#c2410c" stroke-width="0.5"/>
  <text x="284" y="248" text-anchor="middle" fill="#fdba74" font-size="10" font-weight="600">Spring Security</text>
  <text x="284" y="260" text-anchor="middle" fill="#fb923c" font-size="8">JWT authentication</text>

  <rect x="212" y="276" width="144" height="34" rx="6" fill="#2c1810" stroke="#c2410c" stroke-width="0.5"/>
  <text x="284" y="290" text-anchor="middle" fill="#fdba74" font-size="10" font-weight="600">Razorpay SDK</text>
  <text x="284" y="302" text-anchor="middle" fill="#fb923c" font-size="8">UPI · Sandbox payouts</text>

  <rect x="212" y="318" width="144" height="34" rx="6" fill="#2c1810" stroke="#c2410c" stroke-width="0.5"/>
  <text x="284" y="332" text-anchor="middle" fill="#fdba74" font-size="10" font-weight="600">PostgreSQL 15</text>
  <text x="284" y="344" text-anchor="middle" fill="#fb923c" font-size="8">Workers · Policies · Claims</text>

  <rect x="212" y="357" width="144" height="20" rx="4" fill="#7c2d12" stroke="#f97316" stroke-width="0.5"/>
  <text x="284" y="371" text-anchor="middle" fill="#fb923c" font-size="8">Port 8080</text>

  <!-- Column 3: React Native -->
  <rect x="380" y="65" width="168" height="320" rx="10" fill="#0a1628" stroke="#60a5fa" stroke-width="1"/>
  <text x="464" y="86" text-anchor="middle" fill="#93c5fd" font-size="11" font-weight="700">Mobile App</text>
  <text x="464" y="100" text-anchor="middle" fill="#1e3a5f" font-size="8">Worker Facing</text>

  <rect x="392" y="108" width="144" height="34" rx="6" fill="#0f2a4a" stroke="#1d4ed8" stroke-width="0.5"/>
  <text x="464" y="122" text-anchor="middle" fill="#bfdbfe" font-size="10" font-weight="600">React Native 0.74</text>
  <text x="464" y="134" text-anchor="middle" fill="#60a5fa" font-size="8">Android + iOS single codebase</text>

  <rect x="392" y="150" width="144" height="34" rx="6" fill="#0f2a4a" stroke="#1d4ed8" stroke-width="0.5"/>
  <text x="464" y="164" text-anchor="middle" fill="#bfdbfe" font-size="10" font-weight="600">Socket.IO Client</text>
  <text x="464" y="176" text-anchor="middle" fill="#60a5fa" font-size="8">Live trigger notifications</text>

  <rect x="392" y="192" width="144" height="34" rx="6" fill="#0f2a4a" stroke="#1d4ed8" stroke-width="0.5"/>
  <text x="464" y="206" text-anchor="middle" fill="#bfdbfe" font-size="10" font-weight="600">React Navigation</text>
  <text x="464" y="218" text-anchor="middle" fill="#60a5fa" font-size="8">Screen routing</text>

  <rect x="392" y="234" width="144" height="34" rx="6" fill="#0f2a4a" stroke="#1d4ed8" stroke-width="0.5"/>
  <text x="464" y="248" text-anchor="middle" fill="#bfdbfe" font-size="10" font-weight="600">Axios</text>
  <text x="464" y="260" text-anchor="middle" fill="#60a5fa" font-size="8">REST API calls</text>

  <rect x="392" y="276" width="144" height="34" rx="6" fill="#0f2a4a" stroke="#1d4ed8" stroke-width="0.5"/>
  <text x="464" y="290" text-anchor="middle" fill="#bfdbfe" font-size="10" font-weight="600">AsyncStorage</text>
  <text x="464" y="302" text-anchor="middle" fill="#60a5fa" font-size="8">Worker session local cache</text>

  <rect x="392" y="318" width="144" height="34" rx="6" fill="#0f2a4a" stroke="#1d4ed8" stroke-width="0.5"/>
  <text x="464" y="332" text-anchor="middle" fill="#bfdbfe" font-size="10" font-weight="600">Push Notifications</text>
  <text x="464" y="344" text-anchor="middle" fill="#60a5fa" font-size="8">FCM · Payout alerts</text>

  <rect x="392" y="357" width="144" height="20" rx="4" fill="#1e3a5f" stroke="#60a5fa" stroke-width="0.5"/>
  <text x="464" y="371" text-anchor="middle" fill="#60a5fa" font-size="8">Expo · Android Studio</text>

  <!-- Column 4: React Web -->
  <rect x="560" y="65" width="168" height="320" rx="10" fill="#160e28" stroke="#a78bfa" stroke-width="1"/>
  <text x="644" y="86" text-anchor="middle" fill="#c4b5fd" font-size="11" font-weight="700">Admin Dashboard</text>
  <text x="644" y="100" text-anchor="middle" fill="#4c1d95" font-size="8">Insurer / Admin View</text>

  <rect x="572" y="108" width="144" height="34" rx="6" fill="#1e1b4b" stroke="#6d28d9" stroke-width="0.5"/>
  <text x="644" y="122" text-anchor="middle" fill="#ddd6fe" font-size="10" font-weight="600">React 18</text>
  <text x="644" y="134" text-anchor="middle" fill="#a78bfa" font-size="8">Web dashboard</text>

  <rect x="572" y="150" width="144" height="34" rx="6" fill="#1e1b4b" stroke="#6d28d9" stroke-width="0.5"/>
  <text x="644" y="164" text-anchor="middle" fill="#ddd6fe" font-size="10" font-weight="600">Chart.js</text>
  <text x="644" y="176" text-anchor="middle" fill="#a78bfa" font-size="8">Loss ratios · AQI trends</text>

  <rect x="572" y="192" width="144" height="34" rx="6" fill="#1e1b4b" stroke="#6d28d9" stroke-width="0.5"/>
  <text x="644" y="206" text-anchor="middle" fill="#ddd6fe" font-size="10" font-weight="600">Leaflet.js</text>
  <text x="644" y="218" text-anchor="middle" fill="#a78bfa" font-size="8">Live zone map</text>

  <rect x="572" y="234" width="144" height="34" rx="6" fill="#1e1b4b" stroke="#6d28d9" stroke-width="0.5"/>
  <text x="644" y="248" text-anchor="middle" fill="#ddd6fe" font-size="10" font-weight="600">Socket.IO Client</text>
  <text x="644" y="260" text-anchor="middle" fill="#a78bfa" font-size="8">Live trigger feed</text>

  <rect x="572" y="276" width="144" height="34" rx="6" fill="#1e1b4b" stroke="#6d28d9" stroke-width="0.5"/>
  <text x="644" y="290" text-anchor="middle" fill="#ddd6fe" font-size="10" font-weight="600">TailwindCSS</text>
  <text x="644" y="302" text-anchor="middle" fill="#a78bfa" font-size="8">Styling</text>

  <rect x="572" y="318" width="144" height="34" rx="6" fill="#1e1b4b" stroke="#6d28d9" stroke-width="0.5"/>
  <text x="644" y="332" text-anchor="middle" fill="#ddd6fe" font-size="10" font-weight="600">Vite</text>
  <text x="644" y="344" text-anchor="middle" fill="#a78bfa" font-size="8">Build tool</text>

  <rect x="572" y="357" width="144" height="20" rx="4" fill="#4c1d95" stroke="#a78bfa" stroke-width="0.5"/>
  <text x="644" y="371" text-anchor="middle" fill="#a78bfa" font-size="8">Port 3000</text>

  <!-- Column 5: APIs + Infra -->
  <rect x="740" y="65" width="142" height="320" rx="10" fill="#1a1400" stroke="#fbbf24" stroke-width="1"/>
  <text x="811" y="86" text-anchor="middle" fill="#fde68a" font-size="11" font-weight="700">APIs + Infra</text>
  <text x="811" y="100" text-anchor="middle" fill="#78350f" font-size="8">External + Internal</text>

  <rect x="752" y="108" width="118" height="34" rx="6" fill="#2c1810" stroke="#92400e" stroke-width="0.5"/>
  <text x="811" y="122" text-anchor="middle" fill="#fde68a" font-size="10" font-weight="600">Open-Meteo</text>
  <text x="811" y="134" text-anchor="middle" fill="#f59e0b" font-size="8">Weather · Free · No key</text>

  <rect x="752" y="150" width="118" height="34" rx="6" fill="#2c1810" stroke="#92400e" stroke-width="0.5"/>
  <text x="811" y="164" text-anchor="middle" fill="#fde68a" font-size="10" font-weight="600">data.gov.in</text>
  <text x="811" y="176" text-anchor="middle" fill="#f59e0b" font-size="8">CPCB AQI · Free key</text>

  <rect x="752" y="192" width="118" height="34" rx="6" fill="#2c1810" stroke="#92400e" stroke-width="0.5"/>
  <text x="811" y="206" text-anchor="middle" fill="#fde68a" font-size="10" font-weight="600">Razorpay</text>
  <text x="811" y="218" text-anchor="middle" fill="#f59e0b" font-size="8">Payments · Sandbox</text>

  <rect x="752" y="234" width="118" height="34" rx="6" fill="#2c1810" stroke="#92400e" stroke-width="0.5"/>
  <text x="811" y="248" text-anchor="middle" fill="#fde68a" font-size="10" font-weight="600">PostgreSQL</text>
  <text x="811" y="260" text-anchor="middle" fill="#f59e0b" font-size="8">Primary database</text>

  <rect x="752" y="276" width="118" height="34" rx="6" fill="#2c1810" stroke="#92400e" stroke-width="0.5"/>
  <text x="811" y="290" text-anchor="middle" fill="#fde68a" font-size="10" font-weight="600">Redis</text>
  <text x="811" y="302" text-anchor="middle" fill="#f59e0b" font-size="8">Dedup · Cache (prod)</text>

  <rect x="752" y="318" width="118" height="34" rx="6" fill="#2c1810" stroke="#92400e" stroke-width="0.5"/>
  <text x="811" y="332" text-anchor="middle" fill="#fde68a" font-size="10" font-weight="600">GitHub</text>
  <text x="811" y="344" text-anchor="middle" fill="#f59e0b" font-size="8">Version control · CI</text>

  <rect x="752" y="357" width="118" height="20" rx="4" fill="#78350f" stroke="#fbbf24" stroke-width="0.5"/>
  <text x="811" y="371" text-anchor="middle" fill="#fbbf24" font-size="8">Local dev · Render deploy</text>

  <!-- Bottom note -->
  <rect x="20" y="394" width="860" height="20" rx="4" fill="#0d1117" stroke="#1e2130" stroke-width="1"/>
  <text x="450" y="408" text-anchor="middle" fill="#334155" font-size="9">All external APIs have mock fallbacks · System runs fully offline for demo · Production URLs swappable via config.py</text>

</svg>